<svg id="Layer_1" data-name="Layer 1" xmlns="http://www.w3.org/2000/svg" viewBox="0 0 119.96 24.51"><defs><style>.cls-1{fill:#363436;}</style></defs><title>bottom_selection</title><rect class="cls-1" x="27.69" y="-3.6" width="0.72" height="49.03" transform="translate(45.43 -9.37) rotate(90)"/><rect class="cls-1" x="48.46" y="18.35" width="0.69" height="5.95"/><rect class="cls-1" width="0.72" height="18.76"/><rect class="cls-1" x="98.62" y="-3.6" width="0.72" height="49.03" transform="translate(116.37 -80.3) rotate(90)"/><rect class="cls-1" x="74.36" y="20.56" width="0.67" height="5.82" transform="translate(145.86 44.69) rotate(180)"/><rect class="cls-1" x="122.78" y="2.24" width="0.72" height="18.76" transform="translate(242.74 21) rotate(180)"/><rect class="cls-1" x="45.26" y="5.42" width="0.72" height="24.52" transform="translate(59.76 -30.18) rotate(90)"/><rect class="cls-1" x="53.94" y="15.08" width="0.8" height="9.06"/><rect class="cls-1" x="29.83" width="0.72" height="15.52"/><rect class="cls-1" x="81.16" y="5.09" width="0.72" height="25.18" transform="translate(95.67 -66.08) rotate(90)"/><rect class="cls-1" x="65.34" y="15.17" width="0.59" height="9.34"/><rect class="cls-1" x="63.17" y="2.91" width="0.64" height="23.61" transform="translate(123.46 27.19) rotate(180)"/><rect class="cls-1" x="93.4" y="2.24" width="0.72" height="15.52" transform="translate(183.98 17.76) rotate(180)"/></svg>