<?xml version="1.0" encoding="utf-8"?>
<!-- Generator: Adobe Illustrator 21.0.2, SVG Export Plug-In . SVG Version: 6.00 Build 0)  -->
<svg version="1.1" id="Layer_1" xmlns="http://www.w3.org/2000/svg" xmlns:xlink="http://www.w3.org/1999/xlink" x="0px" y="0px"
	 viewBox="0 0 99 99" style="enable-background:new 0 0 99 99;" xml:space="preserve">
<style type="text/css">
	.st0{clip-path:url(#SVGID_2_);}
	.st1{fill:#E6E7E8;}
</style>
<title>Colour codes</title>
<g>
	<defs>
		<polygon id="SVGID_1_" points="33.4,-0.1 0.4,-0.1 0.4,65.9 33.4,65.9 33.4,98.9 99.4,98.9 99.4,65.9 99.4,-0.1 		"/>
	</defs>
	<clipPath id="SVGID_2_">
		<use xlink:href="#SVGID_1_"  style="overflow:visible;"/>
	</clipPath>
	<g class="st0">
		<path class="st1" d="M61.2,48.5c-19,0-34.4-15.4-34.4-34.4c0-9.1,3.6-17.9,10.1-24.3c13.5-13.4,35.3-13.2,48.6,0.3
			c13.3,13.4,13.3,35,0,48.4C79.1,44.9,70.4,48.6,61.2,48.5z"/>
		<path d="M61.2-19.7c18.7,0,33.9,15.1,33.9,33.8c0,9-3.6,17.6-9.9,23.9c-13.2,13.2-34.7,13.2-47.9,0s-13.2-34.7,0-47.9
			C43.6-16.1,52.2-19.7,61.2-19.7 M61.2-20.8c-19.3,0-34.9,15.6-34.9,34.9S42,49.1,61.2,49.1c19.3,0,34.9-15.6,34.9-34.9
			c0-9.3-3.7-18.1-10.2-24.7C79.4-17.1,70.5-20.8,61.2-20.8z"/>
		<path class="st1" d="M23.5,114.4c-17,0-30.8-13.8-30.8-30.8S6.5,52.9,23.5,52.9s30.8,13.8,30.8,30.8c0,6.4-2,12.6-5.6,17.8
			C42.9,109.6,33.5,114.4,23.5,114.4z"/>
		<path d="M23.6,53.4L23.6,53.4c16.7,0,30.2,13.6,30.2,30.3s-13.6,30.2-30.3,30.2c-16.7,0-30.2-13.6-30.2-30.3
			c0-6.3,2-12.4,5.6-17.5C4.5,58.1,13.7,53.4,23.6,53.4 M23.6,52.3c-17.3,0-31.3,14-31.3,31.3c0,17.3,14,31.3,31.3,31.3
			s31.3-14,31.3-31.3c0-10.1-4.9-19.7-13.2-25.5C36.4,54.4,30,52.3,23.6,52.3z"/>
		<path class="st1" d="M91.5,67.8c-14.5,0-26.2-11.7-26.2-26.2c0-14.5,11.7-26.2,26.2-26.2c14.5,0,26.2,11.7,26.2,26.2
			c0,7-2.8,13.6-7.7,18.6C105.1,65,98.4,67.8,91.5,67.8z"/>
		<path d="M91.5,15.8c14.2,0,25.7,11.5,25.7,25.8s-11.5,25.7-25.8,25.7c-14.2,0-25.7-11.5-25.7-25.8c0-6.8,2.7-13.4,7.5-18.2
			C78.1,18.5,84.7,15.8,91.5,15.8 M91.5,14.9c-14.7,0-26.7,11.9-26.7,26.6c0,14.7,11.9,26.7,26.6,26.7s26.7-11.9,26.7-26.6
			c0-7.1-2.8-13.8-7.8-18.8C105.3,17.7,98.6,14.9,91.5,14.9z"/>
		<path class="st1" d="M101.5,27.8C87,27.8,75.3,16,75.3,1.6c0-14.5,11.7-26.2,26.2-26.2s26.2,11.7,26.2,26.2c0,7-2.8,13.7-7.7,18.6
			C115.1,25,108.4,27.8,101.5,27.8z"/>
		<path d="M101.5-24.2c14.2,0,25.8,11.5,25.8,25.7c0,6.9-2.7,13.5-7.6,18.3c-10.1,10.1-26.4,10-36.4,0s-10-26.4,0-36.4
			C88.1-21.5,94.7-24.2,101.5-24.2 M101.5-25.1c-14.7,0-26.7,11.9-26.7,26.6c0,14.7,11.9,26.7,26.6,26.7c14.7,0,26.7-11.9,26.7-26.6
			c0-7.1-2.8-13.8-7.8-18.8C115.3-22.3,108.6-25.1,101.5-25.1z"/>
		<path class="st1" d="M26.2,54.9c-19,0-34.4-15.4-34.4-34.4c0-9.1,3.6-17.9,10.1-24.3C15.3-17.3,37-17.4,50.5-4.1
			s13.6,35.1,0.3,48.6c-0.1,0.1-0.2,0.2-0.3,0.3C44.1,51.3,35.3,54.9,26.2,54.9z"/>
		<path d="M26.2-13.3c18.7,0,33.9,15.1,33.9,33.8c0,9-3.6,17.6-9.9,23.9c-13.2,13.2-34.7,13.2-47.9,0S-11,9.8,2.3-3.4
			C8.6-9.8,17.2-13.4,26.2-13.3 M26.2-14.4C6.9-14.4-8.7,1.2-8.7,20.5c0,19.3,15.6,34.9,34.9,34.9s34.9-15.6,34.9-34.9
			c0-9.3-3.7-18.1-10.2-24.7C44.4-10.7,35.5-14.4,26.2-14.4z"/>
		<path class="st1" d="M-7.5,89.8c-6.9,0-13.6-2.7-18.5-7.7C-36.2,71.9-36.3,55.3-26,45c0,0,0,0,0,0c4.9-4.9,11.6-7.7,18.5-7.6
			c6.9,0,13.6,2.7,18.5,7.6c10.2,10.2,10.2,26.8,0,37.1C6.1,87-0.5,89.8-7.5,89.8z"/>
		<path d="M-7.5,37.8c6.8,0,13.4,2.7,18.2,7.5c10.1,10.1,10.1,26.4,0,36.4c0,0,0,0,0,0c-4.8,4.8-11.4,7.6-18.2,7.5
			c-6.8,0-13.4-2.7-18.2-7.5c-10-10.1-10-26.4,0-36.4C-20.9,40.5-14.3,37.8-7.5,37.8 M-7.5,36.9c-14.7,0-26.7,11.9-26.7,26.6
			s11.9,26.7,26.6,26.7s26.7-11.9,26.7-26.6c0-7.1-2.8-13.8-7.8-18.8C6.3,39.7-0.4,36.9-7.5,36.9z"/>
		<path class="st1" d="M84.4,128.3c-19,0-34.4-15.4-34.4-34.4c0-19,15.4-34.4,34.4-34.4s34.4,15.4,34.4,34.4
			c0,9.1-3.6,17.9-10.1,24.3C102.3,124.7,93.6,128.3,84.4,128.3z"/>
		<path d="M84.4,60.1c18.7,0,33.9,15.1,33.9,33.8s-15.1,33.9-33.8,33.9s-33.9-15.1-33.9-33.8c0-9,3.6-17.6,9.9-23.9
			C66.8,63.6,75.5,60.1,84.4,60.1 M84.5,59c-19.3,0-34.9,15.6-34.9,34.9s15.6,34.9,34.9,34.9s34.9-15.6,34.9-34.9
			c0-9.3-3.7-18.1-10.2-24.7C102.6,62.7,93.7,59,84.5,59L84.5,59z"/>
		<path class="st1" d="M56.7,80.6c-11.9,0-21.5-9.7-21.5-21.6c0-11.9,9.7-21.5,21.6-21.5c11.9,0,21.5,9.7,21.5,21.6
			c0,5.7-2.3,11.2-6.3,15.2C67.9,78.3,62.4,80.6,56.7,80.6z"/>
		<path d="M56.7,38c11.6,0,21,9.4,21,21s-9.4,21-21,21s-21-9.4-21-21c0-5.6,2.2-10.9,6.1-14.8C45.8,40.2,51.1,38,56.7,38 M56.7,36.9
			c-12.2,0-22.1,9.9-22.1,22.1c0,12.2,9.9,22.1,22.1,22.1c12.2,0,22.1-9.9,22.1-22.1c0-5.9-2.3-11.5-6.5-15.6
			C68.2,39.3,62.6,36.9,56.7,36.9L56.7,36.9z"/>
		<path class="st1" d="M17.5,18.5C5.5,18.5-4.1,8.9-4.1-3c0-5.7,2.3-11.2,6.3-15.2c8.6-8.2,22.2-8,30.5,0.6c8,8.3,8,21.5,0,29.9
			C28.6,16.3,23.2,18.6,17.5,18.5z"/>
		<path d="M17.5-24c11.6,0,21,9.4,21,21c0,5.6-2.2,11-6.2,14.9c-8.2,8.2-21.5,8.2-29.7,0.1C-1.4,8-3.6,2.6-3.6-3
			C-3.6-14.6,5.8-24,17.5-24 M17.4-25.1C5.2-25-4.6-15.2-4.6-3c0,12.2,9.9,22.1,22.1,22S39.5,9.2,39.5-3c0-5.8-2.3-11.4-6.5-15.6
			C28.9-22.7,23.3-25.1,17.4-25.1L17.4-25.1z"/>
	</g>
</g>
</svg>
