<?xml version="1.0" encoding="utf-8"?>
<!-- Generator: Adobe Illustrator 22.1.0, SVG Export Plug-In . SVG Version: 6.00 Build 0)  -->
<svg version="1.1" id="Layer_1" xmlns="http://www.w3.org/2000/svg" xmlns:xlink="http://www.w3.org/1999/xlink" x="0px" y="0px"
	 viewBox="0 0 501.6 435.5" style="enable-background:new 0 0 501.6 435.5;" xml:space="preserve">
<style type="text/css">
	.st0{opacity:0.25;}
	.st1{fill:#FFFFFF;}
</style>
<g class="st0">
	<g>
		<path d="M351.2,132.6H125.5v1.6v20.4v204.1v22.1h22h203.7h22v-22.1V154.7v-22.1H351.2z M351.2,358.8H147.5V154.7h203.7V358.8z"/>
	</g>
	<g>
		<polygon points="46.4,46.4 56.9,78.8 90.8,78.8 63.3,98.7 73.8,131 46.4,111.1 19,131 29.4,98.7 2,78.8 35.9,78.8 		"/>
		<polygon points="62.1,303.1 66.9,317.8 82.3,317.8 69.8,326.9 74.6,341.6 62.1,332.5 49.6,341.6 54.4,326.9 41.9,317.8 
			57.3,317.8 		"/>
		<polygon points="82.4,205.8 87.7,221.9 104.6,221.9 90.9,231.9 96.1,248.1 82.4,238.1 68.7,248.1 73.9,231.9 60.2,221.9 
			77.2,221.9 		"/>
		<polygon points="176.8,39 182,55.1 199,55.1 185.3,65.1 190.5,81.2 176.8,71.3 163.1,81.2 168.3,65.1 154.6,55.1 171.6,55.1 		"/>
		<polygon points="470.7,186.7 467.8,214.3 493.1,225.6 466,231.4 463,259 449.2,234.9 422.1,240.7 440.7,220.1 426.8,196 
			452.1,207.3 		"/>
		<polygon points="328.8,13 333.1,26.2 347,26.2 335.8,34.4 340.1,47.6 328.8,39.4 317.6,47.6 321.9,34.4 310.7,26.2 324.6,26.2 		
			"/>
		<polygon points="435,325.2 436.5,329.6 441.1,329.6 437.3,332.3 438.8,336.7 435,334 431.3,336.7 432.7,332.3 429,329.6 
			433.6,329.6 		"/>
		<polygon points="280.3,83.5 281.8,87.9 286.4,87.9 282.7,90.7 284.1,95.1 280.3,92.4 276.6,95.1 278,90.7 274.3,87.9 278.9,87.9 
					"/>
		<polygon points="28.7,175.5 30.1,179.9 34.7,179.9 31,182.6 32.4,187 28.7,184.3 24.9,187 26.4,182.6 22.6,179.9 27.3,179.9 		"/>
	</g>
	<g>
		<path d="M313.4,193.6c-2.2-2.5-5.3-4-8.6-4h-10.9v-3.4c0-4.2-3.4-7.7-7.7-7.7h-73.9c-4.2,0-7.7,3.4-7.7,7.7v3.4h-10.9
			c-3.3,0-6.5,1.5-8.6,4c-2.1,2.5-3.1,5.8-2.5,9c2.9,17.6,13.9,33.2,29.7,41.8c1.4,3.5,3.1,6.7,4.9,9.8c5.8,9.8,13,16.5,20.9,19.8
			c0.8,8.1-4.6,15.8-12.7,17.7c0,0,0,0,0,0c-1.6,0.4-2.8,1.8-2.8,3.5v16.6h-6.7c-6,0-10.8,4.9-10.8,10.9v8.6c0,2,1.6,3.6,3.6,3.6
			h81.6c2,0,3.6-1.6,3.6-3.6v-8.6c0-6-4.9-10.9-10.8-10.9h-6.7v-16.6c0-1.7-1.2-3.1-2.8-3.5c0,0,0,0,0,0
			c-8.2-1.8-13.6-9.6-12.7-17.8c7.8-3.3,14.9-10,20.6-19.6c1.8-3.1,3.4-6.3,4.9-9.8c15.7-8.6,26.8-24.1,29.7-41.8
			C316.5,199.5,315.6,196.2,313.4,193.6z M189.8,201.5c-0.2-1.2,0.1-2.3,0.9-3.2c0.8-0.9,1.9-1.4,3.1-1.4h10.9v6.7
			c0,10.4,1.3,20.5,3.8,29.8C198.7,225.5,191.9,214.1,189.8,201.5z M286.7,322.7v4.9h-74.4v-4.9c0-2,1.6-3.6,3.6-3.6h67.2
			C285.1,319.1,286.7,320.7,286.7,322.7z M259.7,291.6h-20.5c0.9-1,1.7-2.1,2.4-3.2c2.4-3.8,3.7-8,3.7-12.4c1.3,0.2,2.6,0.3,3.9,0.3
			c1.4,0,2.8-0.1,4.2-0.3C253.6,281.8,255.9,287.4,259.7,291.6z M249.3,261.2c-7.8,0-15.3-5.3-21-15c-6-10.2-9.3-23.7-9.3-38.2V194
			c0-0.2,0.2-0.4,0.3-0.4h60c0.2,0,0.3,0.2,0.3,0.4V208c0,14.5-3.3,28-9.3,38.2C264.6,255.9,257.1,261.2,249.3,261.2z M308.8,201.5
			c-2,12.6-8.9,24-18.8,31.8c2.5-9.2,3.8-19.4,3.8-29.8v-6.7h10.9c1.2,0,2.3,0.5,3.1,1.4C308.7,199.2,309,200.4,308.8,201.5z"/>
		<polygon points="248.9,199.2 254.1,215.3 271.1,215.3 257.4,225.3 262.6,241.5 248.9,231.5 235.2,241.5 240.4,225.3 226.7,215.3 
			243.7,215.3 		"/>
	</g>
</g>
<g>
	<g>
		<path class="st1" d="M354.2,129.6H128.5v1.6v20.4v204.1v22.1h22h203.7h22v-22.1V151.7v-22.1H354.2z M354.2,355.8H150.5V151.7
			h203.7V355.8z"/>
	</g>
	<g>
		<polygon class="st1" points="49.4,43.4 59.9,75.8 93.8,75.8 66.3,95.7 76.8,128 49.4,108.1 22,128 32.4,95.7 5,75.8 38.9,75.8 		
			"/>
		<polygon class="st1" points="65.1,300.1 69.9,314.8 85.3,314.8 72.8,323.9 77.6,338.6 65.1,329.5 52.6,338.6 57.4,323.9 
			44.9,314.8 60.3,314.8 		"/>
		<polygon class="st1" points="85.4,202.8 90.7,218.9 107.6,218.9 93.9,228.9 99.1,245.1 85.4,235.1 71.7,245.1 76.9,228.9 
			63.2,218.9 80.2,218.9 		"/>
		<polygon class="st1" points="179.8,36 185,52.1 202,52.1 188.3,62.1 193.5,78.2 179.8,68.3 166.1,78.2 171.3,62.1 157.6,52.1 
			174.6,52.1 		"/>
		<polygon class="st1" points="473.7,183.7 470.8,211.3 496.1,222.6 469,228.4 466,256 452.2,231.9 425.1,237.7 443.7,217.1 
			429.8,193 455.1,204.3 		"/>
		<polygon class="st1" points="331.8,10 336.1,23.2 350,23.2 338.8,31.4 343.1,44.6 331.8,36.4 320.6,44.6 324.9,31.4 313.7,23.2 
			327.6,23.2 		"/>
		<polygon class="st1" points="438,322.2 439.5,326.6 444.1,326.6 440.3,329.3 441.8,333.7 438,331 434.3,333.7 435.7,329.3 
			432,326.6 436.6,326.6 		"/>
		<polygon class="st1" points="283.3,80.5 284.8,84.9 289.4,84.9 285.7,87.7 287.1,92.1 283.3,89.4 279.6,92.1 281,87.7 277.3,84.9 
			281.9,84.9 		"/>
		<polygon class="st1" points="31.7,172.5 33.1,176.9 37.7,176.9 34,179.6 35.4,184 31.7,181.3 27.9,184 29.4,179.6 25.6,176.9 
			30.3,176.9 		"/>
	</g>
	<g>
		<path class="st1" d="M316.4,190.6c-2.2-2.5-5.3-4-8.6-4h-10.9v-3.4c0-4.2-3.4-7.7-7.7-7.7h-73.9c-4.2,0-7.7,3.4-7.7,7.7v3.4h-10.9
			c-3.3,0-6.5,1.5-8.6,4c-2.1,2.5-3.1,5.8-2.5,9c2.9,17.6,13.9,33.2,29.7,41.8c1.4,3.5,3.1,6.7,4.9,9.8c5.8,9.8,13,16.5,20.9,19.8
			c0.8,8.1-4.6,15.8-12.7,17.7c0,0,0,0,0,0c-1.6,0.4-2.8,1.8-2.8,3.5v16.6h-6.7c-6,0-10.8,4.9-10.8,10.9v8.6c0,2,1.6,3.6,3.6,3.6
			h81.6c2,0,3.6-1.6,3.6-3.6v-8.6c0-6-4.9-10.9-10.8-10.9h-6.7v-16.6c0-1.7-1.2-3.1-2.8-3.5c0,0,0,0,0,0
			c-8.2-1.8-13.6-9.6-12.7-17.8c7.8-3.3,14.9-10,20.6-19.6c1.8-3.1,3.4-6.3,4.9-9.8c15.7-8.6,26.8-24.1,29.7-41.8
			C319.5,196.5,318.6,193.2,316.4,190.6z M192.8,198.5c-0.2-1.2,0.1-2.3,0.9-3.2c0.8-0.9,1.9-1.4,3.1-1.4h10.9v6.7
			c0,10.4,1.3,20.5,3.8,29.8C201.7,222.5,194.9,211.1,192.8,198.5z M289.7,319.7v4.9h-74.4v-4.9c0-2,1.6-3.6,3.6-3.6h67.2
			C288.1,316.1,289.7,317.7,289.7,319.7z M262.7,288.6h-20.5c0.9-1,1.7-2.1,2.4-3.2c2.4-3.8,3.7-8,3.7-12.4c1.3,0.2,2.6,0.3,3.9,0.3
			c1.4,0,2.8-0.1,4.2-0.3C256.6,278.8,258.9,284.4,262.7,288.6z M252.3,258.2c-7.8,0-15.3-5.3-21-15c-6-10.2-9.3-23.7-9.3-38.2V191
			c0-0.2,0.2-0.4,0.3-0.4h60c0.2,0,0.3,0.2,0.3,0.4V205c0,14.5-3.3,28-9.3,38.2C267.6,252.9,260.1,258.2,252.3,258.2z M311.8,198.5
			c-2,12.6-8.9,24-18.8,31.8c2.5-9.2,3.8-19.4,3.8-29.8v-6.7h10.9c1.2,0,2.3,0.5,3.1,1.4C311.7,196.2,312,197.4,311.8,198.5z"/>
		<polygon class="st1" points="251.9,196.2 257.1,212.3 274.1,212.3 260.4,222.3 265.6,238.5 251.9,228.5 238.2,238.5 243.4,222.3 
			229.7,212.3 246.7,212.3 		"/>
	</g>
</g>
</svg>
