<?xml version="1.0" encoding="utf-8"?>
<!-- Generator: Adobe Illustrator 21.0.2, SVG Export Plug-In . SVG Version: 6.00 Build 0)  -->
<svg version="1.1" id="Layer_1" xmlns="http://www.w3.org/2000/svg" xmlns:xlink="http://www.w3.org/1999/xlink" x="0px" y="0px"
	 viewBox="0 0 150 150" style="enable-background:new 0 0 150 150;" xml:space="preserve">
<style type="text/css">
	.st0{display:none;}
	.st1{display:inline;}
	.st2{display:inline;clip-path:url(#SVGID_2_);}
	.st3{fill:#5687B7;}
	.st4{fill:#2B467E;}
	.st5{fill:#9AC4C4;}
	.st6{fill:#D1EEFC;}
	.st7{fill:#23395A;}
	.st8{fill:#30B0CD;}
	.st9{fill:#75BDE9;}
	.st10{clip-path:url(#SVGID_4_);}
	.st11{fill:#FCB133;}
	.st12{fill:#8A4D29;}
	.st13{fill:#FFDD00;}
	.st14{fill:#FFF200;}
	.st15{fill:#63391D;}
	.st16{fill:#DF6D27;}
	.st17{fill:#EBD539;}
</style>
<title>Untitled-40</title>
<g class="st0">
	<defs>
		<path id="SVGID_1_" d="M112.6,66.3c0-6.5-3.2-12.5-8.5-16.1c0.6-1.6,0.9-3.2,0.9-4.9c-0.1-6.9-5-12.8-11.8-13.9
			c-0.4-7.1-6-12.8-13-13.4c-2.2-4.5-6.8-7.4-11.8-7.4c-1.3,0-2.6,0.2-3.8,0.6c-2-2.4-4.9-3.8-8-3.8c-5.6,0-10.2,4.5-10.3,10.1v36.1
			c0,4.4,1.9,8.5,5.2,11.4c-3.4,3-5.3,7.3-5.3,11.8v22.2c0,2.7,0.7,5.3,2,7.6c-1.3,2.2-2,4.8-2,7.4v17.3c0.2,8,6.7,14.3,14.7,14.1
			c5-0.1,9.5-2.7,12.1-7c1.8,0.8,3.8,1.2,5.8,1.2c7.8,0.1,14.1-6.1,14.4-13.9c8-2.3,13.6-9.6,13.6-17.9c0-2.9-0.7-5.7-2-8.3
			c7.8-4.9,10.2-15.1,5.4-22.9c-0.1-0.1-0.1-0.2-0.2-0.3C111.6,73.2,112.6,69.8,112.6,66.3z M91.2,65.8c3.5,1.1,5.6,4.8,4.5,8.4
			c-0.5,1.6-1.6,3-3.1,3.9c-1.2,0.7-1.6,2.2-0.9,3.4c0,0,0,0,0,0.1c0.7,1.2,2.3,1.6,3.5,0.9c2.9-1.7,4.9-4.4,5.6-7.7
			c1.6,0.4,2.9,1.5,3.8,2.9c0,0.1,0.1,0.1,0.1,0.2s0,0.1,0.1,0.1c1.7,2.1,2.7,4.7,2.7,7.5c0,3.9-2,7.5-5.2,9.6
			c-3.5-6-10.5-7.2-14.2-7.4c-0.8-3-2.5-5.7-4.9-7.6c-1.1-0.9-2.7-0.7-3.6,0.3c-0.9,1.1-0.7,2.6,0.4,3.5c2.2,1.8,3.4,4.4,3.4,7.2
			c-0.2,5.2-4.5,9.2-9.7,9.1c-4.9-0.2-8.9-4.1-9.1-9.1c0-2.2,0.8-4.3,2.3-6c0,0,0-0.1,0.1-0.1c0.7-0.1,1.4-0.3,2.1-0.5
			c5.3-1.9,8-7.7,6.2-13c0,0,0-0.1,0-0.1c-0.5-1.3-2-2-3.3-1.5c-1.3,0.5-2,1.9-1.5,3.2c0,0,0,0,0,0c1,2.7-0.4,5.7-3,6.7
			c0,0,0,0-0.1,0c-2.7,1-5.7-0.4-6.8-3.1c-0.5-1.3-2-2-3.3-1.5c-1.3,0.5-2,1.9-1.5,3.2c0,0,0,0,0,0c1,2.6,3,4.7,5.6,5.8
			c-1.2,2.1-1.8,4.4-1.8,6.8c0.1,8,6.7,14.4,14.7,14.3c7.1-0.1,13.1-5.4,14.1-12.5c3.1,0.2,8.6,1.4,10.3,6.6
			c0.1,0.2,0.2,0.5,0.3,0.7c0,0,0,0,0,0.1c1.7,2.3,2.5,5,2.5,7.8c0,5.6-3.5,10.6-8.8,12.6c-0.6-3.1-2.1-6-4.3-8.3
			c-1-1-2.6-0.9-3.6,0.1c-1,1-0.9,2.6,0,3.5c0,0,0,0,0,0c2,2,3,4.8,2.9,7.6c0,0.1,0,0.2,0,0.3c0,0.1,0,0.2,0,0.3
			c0.1,0.4,0.1,0.9,0.1,1.3c0,5.1-4.2,9.1-9.3,9.1c-1.2,0-2.4-0.3-3.6-0.7c1.1-3,1.3-7.5-2.2-12.2c1.7-2.8,1.6-6.5-0.4-9.1
			c-0.8-1.1-2.4-1.4-3.6-0.6c-1.1,0.8-1.4,2.3-0.6,3.5c0,0,0,0,0,0c1.1,1.4,0.7,3.5-0.7,4.5c0,0,0,0-0.1,0c-1.5,1.1-3.6,0.7-4.7-0.7
			c-0.8-1.1-2.4-1.4-3.6-0.6c-1.1,0.8-1.4,2.3-0.6,3.5c0,0,0,0,0,0c2.3,3.2,6.6,4.3,10.2,2.7c3.2,4.7,0.9,8,0.6,8.4
			c-0.1,0.2-0.2,0.4-0.3,0.6c0,0.1-0.1,0.1-0.1,0.2c-1.7,4.9-7,7.4-11.8,5.8c-3.7-1.3-6.2-4.7-6.3-8.6V114c0-1.2,0.2-2.4,0.7-3.5
			c3.3,2.1,7.1,3.2,11,3.2h0.7c1.4-0.1,2.4-1.4,2.2-2.8c-0.1-1.2-1.1-2.2-2.3-2.2h-0.7c-3.6,0.1-7-1.2-9.7-3.6
			c-1.2-1.8-1.9-3.9-1.9-6.1V76.7c0-4.1,2.3-7.8,5.9-9.7c0.1,0,0.1-0.1,0.2-0.1h0.1c3.4-2.3,7.9-1.9,10.9,0.8
			c1.1,0.9,2.7,0.8,3.6-0.3c0.9-1,0.8-2.6-0.2-3.5c0,0,0,0,0,0c-4.3-3.8-10.6-4.6-15.8-2c-2.9-1.8-4.6-5-4.6-8.4V17.4
			c0-2.8,2.4-5.1,5.2-5.1c1.7,0,3.4,0.9,4.3,2.4c-0.5,2-1.5,4.9-3.1,5.8c-1.2,0.7-1.6,2.2-0.9,3.4c0,0,0,0,0,0.1
			c0.7,1.2,2.3,1.6,3.5,0.9c3.4-2,4.9-6.4,5.4-8.8c4-1.5,8.5,0.5,10,4.5c0,0.1,0.1,0.2,0.1,0.3c0,1.4-0.1,6.9-3.2,10.4
			c-1.2,1.3-2.8,2.3-4.6,2.7c-0.6-2.7-2.6-4.9-5.2-5.9c-1.3-0.5-2.8,0.2-3.2,1.5C59,31,59.7,32.4,61,32.9c0,0,0,0,0,0
			c1.5,0.5,2.3,2.2,1.8,3.7c0,0,0,0,0,0c-0.6,1.5-2.2,2.3-3.8,1.8c-1.3-0.5-2.8,0.2-3.2,1.5c-0.5,1.3,0.2,2.7,1.5,3.2c0,0,0,0,0,0
			c3.8,1.3,8-0.4,9.8-4c3.5-0.3,6.7-1.9,9.1-4.5c3.3-3.6,4.2-8.4,4.4-11.5C85,24.1,88,27.8,88,32c0,0.4,0,0.8-0.1,1.3
			c0,0.2,0,0.4,0.1,0.5c-0.2,1.6-0.9,4.3-2.1,5c-1.2,0.7-1.5,2.3-0.8,3.4c0,0,0,0,0,0.1c0.8,1.2,2.3,1.5,3.5,0.8
			c2.4-1.5,3.5-4.5,4-6.7c4.1,0.9,7.1,4.6,7.1,8.8c0,0.8-0.1,1.5-0.3,2.3c-6.2-2.7-13.3-2-18.9,1.8c-5-3.2-11.5-2.3-15.5,2.1
			c-0.9,1-0.8,2.6,0.2,3.5c0,0,0,0,0,0c1.1,0.9,2.7,0.8,3.6-0.2c1.2-1.4,2.9-2.2,4.7-2.3c1.8-0.1,3.6,0.5,5,1.7
			c2.8,2.4,3.1,6.6,0.7,9.4c0,0-0.1,0.1-0.1,0.1c-0.9,1-0.8,2.6,0.2,3.5c0,0,0,0,0,0c1.1,0.9,2.7,0.8,3.6-0.2
			C86.6,63,87,57.4,84.3,53c4.6-2.9,10.5-2.8,15,0.1c0.1,0,0.1,0,0.2,0.1s0.1,0.1,0.2,0.1c4.8,2.5,7.9,7.5,7.9,13
			c0,1.9-0.4,3.9-1.2,5.7c-1.6-1.3-3.5-2.1-5.5-2.4c-1-4.1-4-7.3-8-8.6c-1.3-0.4-2.8,0.3-3.2,1.6C89.2,64,89.9,65.4,91.2,65.8
			C91.2,65.8,91.2,65.8,91.2,65.8z"/>
	</defs>
	<clipPath id="SVGID_2_" class="st1">
		<use xlink:href="#SVGID_1_"  style="overflow:visible;"/>
	</clipPath>
	<g class="st2">
		<polygon class="st3" points="9.3,46.9 -19.4,75.6 38,132.9 66.7,104.3 38,75.6 		"/>
		<polygon class="st4" points="66.7,104.3 95.4,132.9 152.7,75.6 124.1,46.9 95.4,75.6 		"/>
		
			<rect x="75.1" y="26.6" transform="matrix(0.7071 -0.7071 0.7071 0.7071 -5.2347 81.1754)" class="st5" width="40.6" height="40.6"/>
		
			<rect x="46.4" y="-2.1" transform="matrix(0.7071 -0.7071 0.7071 0.7071 6.6451 52.4957)" class="st6" width="40.6" height="40.6"/>
		
			<rect x="46.4" y="112.2" transform="matrix(0.7071 -0.7071 0.7071 0.7071 -74.1782 85.9757)" class="st7" width="40.6" height="40.6"/>
		
			<rect x="46.4" y="55.3" transform="matrix(0.7071 -0.7071 0.7071 0.7071 -33.9144 69.2957)" class="st8" width="40.6" height="40.6"/>
		
			<rect x="17.7" y="26.6" transform="matrix(0.7071 -0.7071 0.7071 0.7071 -22.0347 40.6159)" class="st9" width="40.6" height="40.6"/>
	</g>
</g>
<g>
	<defs>
		<path id="SVGID_3_" d="M114,53.7V17.6c-0.1-5.6-5.2-10.1-11.5-10.1c-3.5,0-6.8,1.4-9,3.8c-1.4-0.4-2.8-0.6-4.3-0.6
			c-5.6,0-10.7,2.9-13.2,7.4c-7.9,0.6-14.2,6.3-14.6,13.4c-7.6,1.2-13.2,7-13.3,13.9c0,1.7,0.3,3.3,1,4.9c-6,3.7-9.5,9.7-9.6,16.1
			c0,3.5,1.1,6.9,3.1,9.9c-5.6,7.7-3.2,18,5.4,23.1c0.1,0.1,0.3,0.1,0.4,0.2c-1.5,2.6-2.2,5.4-2.2,8.3c0,8.3,6.2,15.6,15.2,17.9
			c0.3,7.8,7.4,13.9,16.1,13.9c2.2,0,4.5-0.4,6.5-1.2c4.6,6.8,14.6,9,22.2,4.9c4.7-2.6,7.7-7.1,7.8-12v-17.2c0-2.6-0.8-5.2-2.2-7.4
			c1.5-2.3,2.2-5,2.2-7.6V76.9c0-4.5-2.2-8.8-5.9-11.8C111.8,62.2,113.9,58.1,114,53.7z M108.2,53.7c0,3.4-2,6.6-5.2,8.4
			c-5.8-2.6-12.8-1.9-17.7,2C84.2,65,84,66.5,85,67.6c0,0,0,0,0,0c1,1.1,2.8,1.2,4,0.3c3.4-2.8,8.4-3.1,12.3-0.8h0.1
			c0.1,0,0.1,0.1,0.2,0.1c4,1.9,6.6,5.6,6.6,9.7v22.3c0,2.2-0.7,4.3-2.1,6.1c-3,2.4-6.9,3.6-10.9,3.5h-0.7c-1.6,0-2.8,1.1-2.9,2.5
			c0,1.4,1.2,2.5,2.8,2.6h0.8c4.4,0,8.6-1.1,12.3-3.2c0.5,1.1,0.8,2.3,0.8,3.5v17.3c-0.2,5.1-5,9.2-10.8,9c-4.3-0.1-8-2.6-9.5-6.1
			c0-0.1-0.1-0.1-0.1-0.2c-0.1-0.2-0.2-0.4-0.3-0.6c-0.4-0.4-2.9-3.7,0.7-8.4c4.1,1.6,8.8,0.4,11.4-2.7c0.9-1.1,0.7-2.7-0.6-3.5
			c0,0,0,0-0.1,0c-1.3-0.8-3-0.6-4,0.6c-1.2,1.5-3.5,1.8-5.2,0.7c-1.6-1-2-3.1-0.9-4.5c0,0,0,0,0,0c0.9-1.1,0.7-2.7-0.6-3.5
			c0,0,0,0-0.1,0c-1.3-0.8-3.1-0.6-4,0.6c-2.2,2.7-2.4,6.3-0.4,9.1c-3.9,4.8-3.7,9.3-2.4,12.2c-1.3,0.5-2.6,0.7-4,0.7
			c-5.7,0.1-10.4-4-10.4-9.1c0,0,0,0,0,0c0-0.4,0-0.9,0.1-1.3c0-0.1,0-0.2,0-0.3c0-0.1,0-0.2,0-0.3c-0.2-2.8,1-5.6,3.2-7.6
			c1.1-0.9,1.2-2.5,0.1-3.5c0,0,0,0,0,0c-1.1-1-2.9-1-4-0.1c-2.5,2.3-4.2,5.2-4.8,8.3c-5.8-2-9.7-7-9.7-12.6c0-2.8,1-5.6,2.8-7.8
			c0,0,0,0,0-0.1c0.2-0.2,0.3-0.4,0.4-0.6c1.9-5.2,8.1-6.4,11.6-6.6c1.2,7.9,9.3,13.5,18.2,12.5c8-0.9,14.1-7,14.1-14.2
			c0-2.4-0.7-4.8-2-6.9c2.9-1.1,5.2-3.2,6.3-5.8c0.5-1.3-0.2-2.7-1.6-3.2c0,0,0,0,0,0c-1.5-0.5-3.1,0.2-3.7,1.5
			c-1.2,2.7-4.6,4.1-7.6,3.1c-3-1-4.6-3.9-3.5-6.6c0,0,0,0,0-0.1c0.5-1.3-0.2-2.7-1.7-3.2c0,0,0,0,0,0c-1.5-0.5-3.1,0.2-3.7,1.5
			c-2.2,5.3,0.8,11.1,6.7,13.1c0,0,0.1,0,0.1,0c0.8,0.2,1.5,0.4,2.3,0.5c0,0,0,0.1,0.1,0.1c1.6,1.7,2.5,3.8,2.5,6
			c-0.2,5.2-5.1,9.2-10.9,9.1c-5.5-0.2-10-4.1-10.2-9.1c0-2.8,1.4-5.4,3.9-7.1c1.2-0.9,1.4-2.4,0.4-3.5c0,0,0,0,0-0.1
			c-1-1.1-2.8-1.2-4-0.4c-2.7,2-4.6,4.7-5.5,7.7C62.8,88,55,89.2,51,95.2c-3.6-2.2-5.8-5.8-5.8-9.7c0-2.7,1-5.4,3-7.5
			c0,0,0-0.1,0.1-0.1c0.1,0,0.1-0.1,0.2-0.2c0.9-1.4,2.4-2.5,4.2-2.9c0.8,3.2,3.1,6,6.3,7.7c1.4,0.7,3.1,0.3,3.9-0.9
			c0.8-1.2,0.4-2.7-0.9-3.4c0,0,0,0-0.1,0c-3.6-1.9-4.8-6-2.8-9.2c1-1.5,2.5-2.6,4.3-3.1c1.5-0.4,2.3-1.8,1.9-3.1
			c-0.5-1.3-2.1-2-3.6-1.6c-4.4,1.2-7.8,4.5-8.9,8.5c-2.3,0.3-4.4,1.1-6.2,2.4c-0.9-1.8-1.3-3.7-1.3-5.7c0-5.5,3.4-10.5,8.9-13
			c0.1,0,0.1-0.1,0.2-0.1c0.1,0,0.2,0,0.2-0.1c5.1-2.9,11.6-3,16.8-0.1c-3.1,4.4-2.6,10,1.3,13.9c1,1,2.8,1.2,4,0.2
			c1.2-0.9,1.3-2.5,0.3-3.5c0,0,0,0,0,0c-2.8-2.7-2.5-7,0.5-9.4c0.1,0,0.1-0.1,0.2-0.1c3.2-2.5,8-2.2,10.9,0.6c1.1,1,2.8,1.1,4,0.2
			c1.2-0.9,1.3-2.5,0.3-3.5c0,0,0,0,0,0c-4.4-4.4-11.8-5.3-17.4-2.1C69.1,45.7,61,45,54.1,47.7c-0.2-0.7-0.3-1.5-0.3-2.3
			c0.1-4.2,3.4-7.9,8-8.8c0.6,2.2,1.8,5.2,4.5,6.7c1.3,0.8,3.1,0.4,4-0.8c0.8-1.1,0.5-2.7-0.8-3.4c0,0,0,0,0,0
			c-1.3-0.8-2.1-3.5-2.3-5.1c0-0.2,0.1-0.4,0.1-0.5c-0.1-0.4-0.1-0.8-0.1-1.3c0-4.3,3.4-8,8.1-8.9c0.3,3,1.3,7.9,4.9,11.5
			c2.7,2.6,6.3,4.1,10.2,4.5c2.1,3.6,6.8,5.3,11,4c1.5-0.4,2.3-1.9,1.8-3.2c0,0,0,0,0,0c-0.5-1.3-2.2-2-3.6-1.5
			c-1.7,0.5-3.6-0.3-4.2-1.8c-0.6-1.5,0.3-3.2,2-3.7c0,0,0,0,0,0c1.5-0.4,2.3-1.9,1.8-3.2c0,0,0,0,0,0c-0.5-1.3-2.2-2-3.6-1.5
			c-2.9,0.9-5.1,3.1-5.8,5.8c-2-0.4-3.9-1.3-5.3-2.7c-3.5-3.5-3.6-9-3.6-10.4c1.5-4.1,6.4-6.3,11-4.9c0.1,0,0.2,0.1,0.3,0.1
			c0.6,2.4,2.3,6.8,6.1,8.8c1.3,0.7,3.1,0.4,3.9-0.8c0.8-1.2,0.4-2.7-0.9-3.4c0,0,0,0-0.1,0c-1.8-1-3-3.8-3.5-5.9
			c1.8-2.4,5.4-3.1,8-1.5c1.6,0.9,2.6,2.5,2.6,4.1V53.7L108.2,53.7z"/>
	</defs>
	<clipPath id="SVGID_4_">
		<use xlink:href="#SVGID_3_"  style="overflow:visible;"/>
	</clipPath>
	<g class="st10">
		<polygon class="st11" points="28.3,47.5 -3.3,75.7 59.9,132.1 91.5,103.9 59.9,75.7 		"/>
		<polygon class="st12" points="91.5,103.9 123.1,132.1 186.4,75.7 154.7,47.5 123.1,75.7 		"/>
		<polygon class="st13" points="91.5,47.5 123.1,19.3 154.7,47.5 123.1,75.7 		"/>
		<polygon class="st14" points="59.9,19.3 91.5,-8.9 123.1,19.3 91.5,47.5 		"/>
		<polygon class="st15" points="59.9,132.1 91.5,103.9 123.1,132.1 91.5,160.3 		"/>
		<polygon class="st16" points="59.9,75.7 91.5,47.5 123.1,75.7 91.5,103.9 		"/>
		<polygon class="st17" points="28.3,47.5 59.9,19.3 91.5,47.5 59.9,75.7 		"/>
	</g>
</g>
</svg>
