<svg xmlns="http://www.w3.org/2000/svg" xmlns:xlink="http://www.w3.org/1999/xlink" viewBox="0 0 99 99"><defs><style>.cls-1{fill:none;}.cls-2{isolation:isolate;}.cls-3{clip-path:url(#clip-path);}.cls-4{fill:#636363;}.cls-4,.cls-5,.cls-6,.cls-7,.cls-8{mix-blend-mode:multiply;}.cls-5{fill:#919191;}.cls-6{fill:#3f3f3f;}.cls-7{fill:#b2b2b2;}.cls-8{fill:#e5e5e5;}</style><clipPath id="clip-path"><polygon class="cls-1" points="33 0 0 0 0 66 33 66 33 99 99 99 99 66 99 0 33 0"/></clipPath></defs><title>Colour codes</title><g class="cls-2"><g id="Layer_1" data-name="Layer 1"><g class="cls-3"><polygon class="cls-4" points="89.88 72.55 89.88 25.79 49.38 2.41 8.88 25.79 8.88 72.55 49.38 95.93 89.88 72.55"/><polygon class="cls-5" points="109.2 107.06 109.2 72.99 79.7 55.96 50.21 72.99 50.21 107.06 79.7 124.09 109.2 107.06"/><polygon class="cls-6" points="47.23 100.79 47.23 70.25 20.77 54.97 -5.68 70.25 -5.68 100.79 20.77 116.07 47.23 100.79"/><polygon class="cls-7" points="121.17 52.41 121.17 29.56 101.38 18.14 81.59 29.56 81.59 52.41 101.38 63.83 121.17 52.41"/><polygon class="cls-7" points="40.51 17.15 40.51 1.14 26.64 -6.87 12.77 1.14 12.77 17.15 26.64 25.16 40.51 17.15"/><polygon class="cls-7" points="7.12 59.12 7.12 45.05 -5.06 38.02 -17.24 45.05 -17.24 59.12 -5.06 66.15 7.12 59.12"/><polygon class="cls-8" points="100.37 15.52 100.37 2.36 88.97 -4.22 77.57 2.36 77.57 15.52 88.97 22.11 100.37 15.52"/></g></g></g></svg>