<svg id="Layer_1" data-name="Layer 1" xmlns="http://www.w3.org/2000/svg" viewBox="0 0 351 319"><title>GSSSStars</title><path d="M252.53,76.7H80.34v189h189V76.7Zm0,172.18H97.16V93.51H252.53Z"/><polygon points="39.71 32.46 46.01 51.83 66.37 51.83 49.9 63.8 56.19 83.16 39.71 71.19 23.24 83.16 29.53 63.8 13.06 51.83 33.42 51.83 39.71 32.46"/><polygon points="32.01 206.52 35.64 217.7 47.4 217.7 37.89 224.61 41.52 235.79 32.01 228.88 22.5 235.79 26.13 224.61 16.62 217.7 28.38 217.7 32.01 206.52"/><polygon points="50.72 132.4 53.96 142.37 64.44 142.37 55.96 148.53 59.2 158.49 50.72 152.33 42.24 158.49 45.48 148.53 37 142.37 47.48 142.37 50.72 132.4"/><polygon points="153.53 4.1 157.53 16.4 170.46 16.4 160 24 164 36.3 153.53 28.7 143.07 36.3 147.07 24 136.61 16.4 149.54 16.4 153.53 4.1"/><polygon points="238.79 287.13 237.69 297.56 247.26 301.83 237 304 235.89 314.42 230.66 305.34 220.41 307.5 227.43 299.72 222.2 290.64 231.77 294.92 238.79 287.13"/><polygon points="277.51 21.48 280.78 31.54 291.36 31.54 282.8 37.76 286.07 47.82 277.51 41.6 268.95 47.82 272.22 37.76 263.66 31.54 274.24 31.54 277.51 21.48"/><polygon points="316.51 223.34 317.6 226.7 321.13 226.7 318.27 228.77 319.36 232.12 316.51 230.05 313.66 232.12 314.75 228.77 311.89 226.7 315.42 226.7 316.51 223.34"/><polygon points="175.09 272.65 176.18 276 179.71 276 176.85 278.07 177.94 281.43 175.09 279.35 172.24 281.43 173.33 278.07 170.47 276 174 276 175.09 272.65"/><polygon points="225.42 48.25 226.51 51.6 230.04 51.6 227.18 53.67 228.27 57.03 225.42 54.95 222.57 57.03 223.66 53.67 220.8 51.6 224.33 51.6 225.42 48.25"/><polygon points="6.51 109.34 7.6 112.7 11.13 112.7 8.27 114.77 9.36 118.12 6.51 116.05 3.66 118.12 4.75 114.77 1.89 112.7 5.42 112.7 6.51 109.34"/><path d="M223.76,123.17a8.61,8.61,0,0,0-6.57-3h-8.31v-2.6A5.84,5.84,0,0,0,203,111.7H146.65a5.84,5.84,0,0,0-5.84,5.84v2.6H132.5a8.61,8.61,0,0,0-6.57,3,8.51,8.51,0,0,0-1.93,6.89,44.56,44.56,0,0,0,22.64,31.81,58.79,58.79,0,0,0,3.72,7.46c4.42,7.43,9.91,12.57,16,15.05a12.58,12.58,0,0,1-9.71,13.46h0a2.75,2.75,0,0,0-2.11,2.68v12.64h-5.11a8.27,8.27,0,0,0-8.26,8.26v6.52a2.75,2.75,0,0,0,2.75,2.75h62.29a2.75,2.75,0,0,0,2.75-2.75v-6.52a8.27,8.27,0,0,0-8.26-8.26H195.5V200.52a2.75,2.75,0,0,0-2.12-2.68h0a12.57,12.57,0,0,1-9.7-13.57c5.94-2.52,11.33-7.61,15.68-14.94a58.8,58.8,0,0,0,3.72-7.46,44.56,44.56,0,0,0,22.64-31.81A8.5,8.5,0,0,0,223.76,123.17Zm-94.32,6a3,3,0,0,1,.69-2.43,3.11,3.11,0,0,1,2.37-1.1h8.32v5.07a86.55,86.55,0,0,0,2.94,22.68A39,39,0,0,1,129.44,129.17Zm73.92,92.25v3.77H146.58v-3.77a2.76,2.76,0,0,1,2.75-2.75h51.27A2.76,2.76,0,0,1,203.36,221.42Zm-20.57-23.65H167.18a18.23,18.23,0,0,0,1.86-2.43,17.92,17.92,0,0,0,2.84-9.45,21.59,21.59,0,0,0,6.18,0A18.13,18.13,0,0,0,182.79,197.77Zm-7.95-23.14c-6,0-11.66-4.06-16-11.43-4.6-7.73-7.13-18.06-7.13-29.08v-10.7a.27.27,0,0,1,.27-.27h45.8a.27.27,0,0,1,.27.27v10.7c0,11-2.53,21.35-7.13,29.08C186.5,170.58,180.81,174.63,174.84,174.63Zm45.4-45.46a39,39,0,0,1-14.31,24.22,86.55,86.55,0,0,0,2.94-22.68v-5.07h8.31a3.11,3.11,0,0,1,2.37,1.1A3,3,0,0,1,220.25,129.17Z"/><polygon points="174.51 127.4 178.51 139.7 191.44 139.7 180.97 147.3 184.97 159.6 174.51 152 164.05 159.6 168.04 147.3 157.58 139.7 170.51 139.7 174.51 127.4"/></svg>