<?xml version="1.0" encoding="utf-8"?>
<!-- Generator: Adobe Illustrator 21.0.2, SVG Export Plug-In . SVG Version: 6.00 Build 0)  -->
<svg version="1.1" id="Layer_1" xmlns="http://www.w3.org/2000/svg" xmlns:xlink="http://www.w3.org/1999/xlink" x="0px" y="0px"
	 viewBox="0 0 216.9 216.9" style="enable-background:new 0 0 216.9 216.9;" xml:space="preserve">
<style type="text/css">
	.st0{opacity:0.3;fill:#020202;}
	.st1{fill:#FFFFFF;}
</style>
<g>
	<g>
		<polygon class="st0" points="142.1,148.2 135.5,136.2 92.5,159.8 51.8,85.5 39.9,92 80.5,166.4 87,178.2 99,171.7 		"/>
		<path class="st0" d="M160.2,107.3l-6.5-11.9l-6.6-11.9l-6.5-11.9l-8.1-14.8L126,44.9l-11.9,6.5l-38.5,21l-11.9,6.5l6.5,11.9
			l8.1,14.8l6.5,11.9l11.9-6.5l38.5-21l6.5,11.9l-50.5,27.6l6.5,11.9l50.5-27.6L160.2,107.3z M90.2,99.2l-8-14.8l38.6-21.1l8.1,14.8
			L90.2,99.2z"/>
		<path class="st0" d="M125,14.5L3,81.2l0.5,0.9l6,11l60.2,110.1l6.5,11.9l11.9-6.5l110.1-60.2l11.9-6.5l-6.5-11.9L143.4,20l-6.5-12
			L125,14.5z M191.7,136.5l-110,60.1l-60.2-110l110.1-60.2L191.7,136.5z"/>
		<polygon class="st1" points="143.1,143.2 136.5,131.2 93.5,154.8 52.8,80.5 40.9,87 81.5,161.4 88,173.2 100,166.7 		"/>
		<path class="st1" d="M161.2,102.3l-6.5-11.9l-6.6-11.9l-6.5-11.9l-8.1-14.8L127,39.9l-11.9,6.5l-38.5,21l-11.9,6.5l6.5,11.9
			l8.1,14.8l6.5,11.9l11.9-6.5l38.5-21l6.5,11.9l-50.5,27.6l6.5,11.9l50.5-27.6L161.2,102.3z M91.2,94.2l-8-14.8l38.6-21.1l8.1,14.8
			L91.2,94.2z"/>
		<path class="st1" d="M126,9.5L4,76.2l0.5,0.9l6,11l60.2,110.1l6.5,11.9l11.9-6.5l110.1-60.2l11.9-6.5l-6.5-11.9L144.4,15l-6.5-12
			L126,9.5z M192.7,131.5l-110,60.1l-60.2-110l110.1-60.2L192.7,131.5z"/>
	</g>
</g>
</svg>
