<?xml version="1.0" encoding="utf-8"?>
<!-- Generator: Adobe Illustrator 21.0.2, SVG Export Plug-In . SVG Version: 6.00 Build 0)  -->
<svg version="1.1" id="Layer_1" xmlns="http://www.w3.org/2000/svg" xmlns:xlink="http://www.w3.org/1999/xlink" x="0px" y="0px"
	 viewBox="0 0 195 195" style="enable-background:new 0 0 195 195;" xml:space="preserve">
<style type="text/css">
	.st0{fill:#303A42;}
	.st1{fill:#F89C1C;}
</style>
<g>
	<g>
		<g>
			<polygon class="st0" points="60.5,31.2 46.5,31.2 46.5,118.9 46.5,132.9 60.5,132.9 111.4,132.9 111.4,118.9 60.5,118.9 			"/>
			<path class="st1" d="M134.1,31.2H88.6H74.6v14.1v17.4v14.1h14.1h45.5v14.1H74.6v14.1h59.6h14.1V90.8V76.7V62.7V45.2V31.2H134.1z
				 M134.1,62.7H88.6V45.2h45.5V62.7z"/>
		</g>
		<rect x="18.3" y="4.1" class="st0" width="14.1" height="156.9"/>
		<rect x="162.2" y="3.1" class="st0" width="14.1" height="157.9"/>
		
			<rect x="90.3" y="75" transform="matrix(6.123234e-17 -1 1 6.123234e-17 -56.6755 251.3019)" class="st0" width="14.1" height="157.9"/>
		
			<rect x="90.3" y="-68.9" transform="matrix(6.123234e-17 -1 1 6.123234e-17 87.2006 107.4258)" class="st0" width="14.1" height="157.9"/>
	</g>
	<g>
		<path class="st0" d="M23.2,185.5l-1.5,4.6h-1.9l5-14.6h2.3l5,14.6h-2l-1.6-4.6H23.2z M28,184.1l-1.4-4.2c-0.3-1-0.5-1.8-0.8-2.7h0
			c-0.2,0.9-0.5,1.7-0.7,2.6l-1.4,4.2H28z"/>
		<path class="st0" d="M50.8,190.1l-3.7-14.6h2l1.7,7.4c0.4,1.8,0.8,3.6,1.1,5h0c0.2-1.4,0.7-3.2,1.2-5.1l1.9-7.4h2l1.8,7.4
			c0.4,1.7,0.8,3.5,1,5h0c0.3-1.6,0.7-3.2,1.2-5l1.9-7.4h1.9l-4.1,14.6h-2l-1.8-7.6c-0.5-1.9-0.8-3.3-1-4.8h0
			c-0.3,1.4-0.6,2.9-1.1,4.8l-2.1,7.6H50.8z"/>
		<path class="st0" d="M83.4,185.5l-1.5,4.6h-1.9l5-14.6h2.3l5,14.6h-2l-1.6-4.6H83.4z M88.1,184.1l-1.4-4.2c-0.3-1-0.5-1.8-0.8-2.7
			h0c-0.2,0.9-0.5,1.7-0.7,2.6l-1.4,4.2H88.1z"/>
		<path class="st0" d="M109.8,175.7c0.9-0.2,2.3-0.3,3.6-0.3c2,0,3.3,0.4,4.2,1.2c0.7,0.6,1.1,1.6,1.1,2.8c0,1.9-1.2,3.2-2.7,3.7
			v0.1c1.1,0.4,1.8,1.4,2.1,2.9c0.5,2,0.8,3.4,1.1,4h-1.9c-0.2-0.4-0.6-1.7-1-3.5c-0.4-2-1.2-2.8-2.9-2.8h-1.8v6.3h-1.9V175.7z
			 M111.6,182.4h1.9c2,0,3.3-1.1,3.3-2.8c0-1.9-1.4-2.7-3.4-2.7c-0.9,0-1.6,0.1-1.9,0.2V182.4z"/>
		<path class="st0" d="M136.9,175.7c1.1-0.2,2.5-0.3,4-0.3c2.7,0,4.6,0.6,5.9,1.8c1.3,1.2,2.1,2.9,2.1,5.2c0,2.4-0.7,4.3-2.1,5.7
			c-1.4,1.4-3.6,2.1-6.5,2.1c-1.3,0-2.5-0.1-3.4-0.2V175.7z M138.8,188.6c0.5,0.1,1.2,0.1,1.9,0.1c4,0,6.2-2.2,6.2-6.2
			c0-3.4-1.9-5.6-5.9-5.6c-1,0-1.7,0.1-2.2,0.2V188.6z"/>
		<path class="st0" d="M166.6,187.8c0.8,0.5,2.1,1,3.4,1c1.9,0,3-1,3-2.5c0-1.4-0.8-2.1-2.7-2.9c-2.4-0.8-3.9-2.1-3.9-4.1
			c0-2.3,1.9-4,4.7-4c1.5,0,2.6,0.3,3.2,0.7l-0.5,1.5c-0.5-0.3-1.4-0.7-2.8-0.7c-2,0-2.7,1.2-2.7,2.2c0,1.4,0.9,2,2.9,2.8
			c2.5,1,3.7,2.1,3.7,4.3c0,2.3-1.7,4.2-5.1,4.2c-1.4,0-2.9-0.4-3.7-0.9L166.6,187.8z"/>
	</g>
</g>
</svg>
