<?xml version="1.0" encoding="utf-8"?>
<!-- Generator: Adobe Illustrator 21.0.0, SVG Export Plug-In . SVG Version: 6.00 Build 0)  -->
<svg version="1.1" id="Layer_1" xmlns="http://www.w3.org/2000/svg" xmlns:xlink="http://www.w3.org/1999/xlink" x="0px" y="0px"
	 viewBox="0 0 195 195" style="enable-background:new 0 0 195 195;" xml:space="preserve">
<style type="text/css">
	.st0{fill:#303A42;}
	.st1{fill:#F89C1C;}
</style>
<g>
	<g>
		<polygon class="st0" points="55.1,38.9 38.9,38.9 38.9,139.9 38.9,156.1 55.1,156.1 113.7,156.1 113.7,139.9 55.1,139.9 		"/>
		<path class="st1" d="M139.9,38.9H87.5H71.3v16.2v20.1v16.2h16.2h52.5v16.2H71.3v16.2h68.6h16.2v-16.2V91.3V75.1V55.1V38.9H139.9z
			 M139.9,75.1H87.5V55.1h52.5V75.1z"/>
	</g>
	<rect x="6.5" y="7.7" class="st0" width="16.2" height="180.8"/>
	<rect x="172.3" y="6.5" class="st0" width="16.2" height="182"/>
	
		<rect x="89.4" y="89.4" transform="matrix(6.123234e-17 -1 1 6.123234e-17 -82.9039 277.9038)" class="st0" width="16.2" height="182"/>
	
		<rect x="89.4" y="-76.4" transform="matrix(6.123234e-17 -1 1 6.123234e-17 82.9039 112.0961)" class="st0" width="16.2" height="182"/>
</g>
</svg>
