<?xml version="1.0" encoding="utf-8"?>
<!-- Generator: Adobe Illustrator 21.0.2, SVG Export Plug-In . SVG Version: 6.00 Build 0)  -->
<svg version="1.1" id="Layer_1" xmlns="http://www.w3.org/2000/svg" xmlns:xlink="http://www.w3.org/1999/xlink" x="0px" y="0px"
	 viewBox="0 0 155.5 184.4" style="enable-background:new 0 0 155.5 184.4;" xml:space="preserve">
<style type="text/css">
	.st0{fill:#FFFFFF;}
	.st1{fill:#303A42;}
	.st2{fill:#F89C1C;}
</style>
<rect y="0" class="st0" width="155.5" height="155.5"/>
<polygon class="st1" points="41.5,27.7 27.7,27.7 27.7,114 27.7,127.8 41.5,127.8 91.6,127.8 91.6,114 41.5,114 "/>
<path class="st2" d="M114,27.7H55.3v44.8H114v13.8H55.3v13.8h72.5V27.7H114z M114,58.7H69.2V41.5H114L114,58.7z"/>
<rect y="1" class="st1" width="13.8" height="154.5"/>
<rect x="141.7" class="st1" width="13.8" height="155.5"/>
<rect y="141.7" class="st1" width="155.5" height="13.8"/>
<rect y="0" class="st1" width="155.5" height="13.8"/>
<path class="st1" d="M4.8,179.7l-1.5,4.5H1.4l4.9-14.4h2.2l4.9,14.4h-2l-1.5-4.5H4.8z M9.5,178.2l-1.4-4.1c-0.3-0.9-0.5-1.8-0.8-2.6
	l0,0c-0.2,0.9-0.5,1.7-0.7,2.6l-1.4,4.1H9.5z"/>
<path class="st1" d="M32,184.2l-3.7-14.4h2l1.7,7.3c0.4,1.8,0.8,3.6,1.1,5l0,0c0.2-1.4,0.7-3.1,1.2-5l1.9-7.2h1.9l1.8,7.3
	c0.4,1.7,0.8,3.4,1,4.9l0,0c0.3-1.6,0.7-3.2,1.2-5l1.9-7.2h1.9l-4.1,14.4h-1.9l-1.8-7.5c-0.4-1.5-0.7-3.1-0.9-4.7l0,0
	c-0.3,1.6-0.7,3.1-1.1,4.7l-2,7.5L32,184.2z"/>
<path class="st1" d="M64,179.7l-1.5,4.5h-1.9l4.9-14.4h2.2l4.9,14.4h-2l-1.5-4.5L64,179.7z M68.7,178.2l-1.4-4.1
	c-0.3-0.9-0.5-1.8-0.8-2.6l0,0c-0.2,0.9-0.4,1.7-0.7,2.6l-1.4,4.1H68.7z"/>
<path class="st1" d="M90,170c1.2-0.2,2.4-0.3,3.6-0.3c2,0,3.3,0.4,4.2,1.2c0.8,0.7,1.2,1.7,1.1,2.7c0,1.7-1.1,3.2-2.7,3.7v0.1
	c1.2,0.5,2,1.6,2.1,2.9c0.3,1.3,0.6,2.7,1.1,3.9h-1.9c-0.4-1.1-0.8-2.3-1-3.4c-0.4-2-1.2-2.7-2.9-2.8h-1.7v6.2H90L90,170z
	 M91.9,176.6h1.9c2,0,3.2-1.1,3.2-2.7c0-1.9-1.3-2.7-3.3-2.7c-0.6,0-1.2,0-1.8,0.2V176.6z"/>
<path class="st1" d="M116.8,170c1.3-0.2,2.6-0.3,3.9-0.3c2.7,0,4.6,0.6,5.8,1.8c1.4,1.3,2.1,3.2,2,5.2c0.1,2.1-0.6,4.1-2.1,5.6
	c-1.3,1.3-3.6,2.1-6.4,2.1c-1.1,0-2.2-0.1-3.4-0.2L116.8,170z M118.6,182.7c0.6,0.1,1.3,0.1,1.9,0.1c4,0,6.1-2.2,6.1-6.1
	c0-3.4-1.9-5.5-5.8-5.5c-0.7,0-1.5,0.1-2.2,0.2L118.6,182.7z"/>
<path class="st1" d="M146,181.9c1,0.6,2.1,0.9,3.3,0.9c1.9,0,3-1,3-2.4s-0.8-2.1-2.7-2.9c-2.3-0.8-3.8-2-3.8-4.1
	c0-2.2,1.9-3.9,4.6-3.9c1.1,0,2.2,0.2,3.2,0.7l-0.5,1.5c-0.8-0.5-1.8-0.7-2.7-0.7c-2,0-2.7,1.2-2.7,2.1c0,1.3,0.9,2,2.9,2.8
	c2.4,0.9,3.7,2.1,3.7,4.2s-1.6,4.1-5,4.1c-1.3,0-2.5-0.3-3.7-0.9L146,181.9z"/>
</svg>
