<svg id="Layer_1" data-name="Layer 1" xmlns="http://www.w3.org/2000/svg" viewBox="0 0 217 216.9"><defs><style>.cls-1{fill:#363436;}</style></defs><title>L9Logo_black</title><polygon class="cls-1" points="145.7 146.8 138.8 134.3 93.7 159 51.1 81.2 38.6 88 81.2 165.9 88 178.3 100.5 171.5 145.7 146.8"/><path class="cls-1" d="M164.7,104l-6.8-12.5L151,79l-6.8-12.5L135.7,51l-6.8-12.5-12.5,6.8L76,67.5,63.5,74.3l6.8,12.5,8.5,15.5,6.8,12.5L98.1,108l40.4-22.1,6.8,12.5L92.4,127.3l6.8,12.5,52.9-28.9ZM91.3,95.5,82.9,80l40.4-22.1,8.5,15.5Z"/><path class="cls-1" d="M127.8,6.8,0,76.7l.5.9L6.8,89.1,69.9,204.4l6.8,12.5,12.5-6.8L204.5,147l12.5-6.8-6.8-12.5L147.1,12.5,140.2,0Zm69.8,127.8-115.2,63L19.3,82.4,134.6,19.3Z"/></svg>