<svg xmlns="http://www.w3.org/2000/svg" viewBox="0 0 28.18 8.64"><defs><style>.cls-1{fill:#363436;}</style></defs><title>Asset 3</title><g id="Layer_2" data-name="Layer 2"><g id="Layer_1-2" data-name="Layer 1"><rect class="cls-1" x="5.67" y="-5.02" width="0.17" height="11.52" transform="translate(5.02 6.5) rotate(-90)"/><rect class="cls-1" x="11.35" y="0.04" width="0.18" height="0.78"/><rect class="cls-1" y="0.72" width="0.17" height="7.92"/><rect class="cls-1" x="22.34" y="-5.02" width="0.17" height="11.52" transform="translate(21.68 23.16) rotate(-90)"/><rect class="cls-1" x="16.64" y="0.12" width="0.19" height="0.71" transform="translate(33.47 0.94) rotate(-180)"/><rect class="cls-1" x="28.01" y="0.72" width="0.17" height="7.92" transform="translate(56.19 9.36) rotate(-180)"/><rect class="cls-1" x="9.8" y="-1.38" width="0.17" height="5.76" transform="translate(8.39 11.39) rotate(-90)"/><rect class="cls-1" x="12.67" width="0.14" height="1.58"/><rect class="cls-1" x="7.01" y="1.48" width="0.17" height="7.16"/><rect class="cls-1" x="18.24" y="-1.46" width="0.17" height="5.92" transform="translate(16.82 19.82) rotate(-90)"/><rect class="cls-1" x="15.32" y="0.04" width="0.13" height="1.55" transform="translate(30.76 1.62) rotate(-180)"/><rect class="cls-1" x="13.99" y="0.1" width="0.18" height="8.54" transform="translate(28.17 8.74) rotate(-180)"/><rect class="cls-1" x="21.11" y="1.48" width="0.17" height="7.16" transform="translate(42.39 10.12) rotate(-180)"/></g></g></svg>