<?xml version="1.0" encoding="utf-8"?>
<!-- Generator: Adobe Illustrator 21.0.2, SVG Export Plug-In . SVG Version: 6.00 Build 0)  -->
<svg version="1.1" id="Layer_1" xmlns="http://www.w3.org/2000/svg" xmlns:xlink="http://www.w3.org/1999/xlink" x="0px" y="0px"
	 viewBox="0 0 99 99" style="enable-background:new 0 0 99 99;" xml:space="preserve">
<style type="text/css">
	.st0{clip-path:url(#SVGID_2_);}
	.st1{fill:#7B7B7B;}
	.st2{fill:#3D3D3D;}
	.st3{fill:#CBCBCB;}
	.st4{fill:#929292;}
	.st5{fill:#ADADAD;}
	.st6{fill:#545454;}
	.st7{fill:#D6D6D6;}
	.st8{fill:#848484;}
	.st9{fill:#909090;}
</style>
<title>Colour codes</title>
<g>
	<defs>
		<polygon id="SVGID_1_" points="33,0 0,0 0,66 33,66 33,99 99,99 99,66 99,0 		"/>
	</defs>
	<clipPath id="SVGID_2_">
		<use xlink:href="#SVGID_1_"  style="overflow:visible;"/>
	</clipPath>
	<g class="st0">
		<polygon class="st1" points="9.1,85.2 -1.8,29.2 52.2,47.7 		"/>
		<polygon class="st2" points="94.7,50.2 89.8,25.2 113.9,33.4 		"/>
		<polygon class="st3" points="81.5,89.8 72.2,41.7 118.5,57.6 		"/>
		<polygon class="st4" points="59.9,136.3 48.6,78.6 104.2,97.7 		"/>
		<polygon class="st5" points="6.5,41.4 -2.9,-6.5 43.3,9.3 		"/>
		<polygon class="st5" points="72.5,41.8 67.8,17.6 91.2,25.6 		"/>
		<polygon class="st1" points="49.3,33.8 44.5,9.6 67.9,17.6 		"/>
		<polygon class="st6" points="53.7,57.8 49,33.5 72.4,41.6 		"/>
	</g>
	<g class="st0">
		<polygon class="st7" points="105.1,30 119.4,103.1 49,78.9 		"/>
		<polygon class="st8" points="12.9,-18.3 23.9,37.9 -30.3,19.3 		"/>
		<polygon class="st4" points="97.5,-9.2 105.1,30.1 67.3,17.1 		"/>
		<polygon class="st4" points="53.8,12.1 61.4,50.8 24.1,38 		"/>
		<polygon class="st8" points="65.1,104.8 72.7,144 35,131 		"/>
		<polygon class="st6" points="29.9,44.5 33.7,64.3 14.6,57.8 		"/>
		<polygon class="st6" points="48.3,-13.8 53.5,12.6 28.1,3.9 		"/>
		<polygon class="st7" points="36.8,48.9 54,136.8 -30.7,107.7 		"/>
		<polygon class="st8" points="52.1,69.2 56,89 36.9,82.4 		"/>
		<polygon class="st9" points="124.1,36.5 130.6,69.8 98.5,58.8 		"/>
	</g>
</g>
</svg>
