<svg id="Layer_1" data-name="Layer 1" xmlns="http://www.w3.org/2000/svg" xmlns:xlink="http://www.w3.org/1999/xlink" viewBox="0 0 99 99"><defs><style>.cls-1{fill:none;}.cls-2{clip-path:url(#clip-path);}.cls-3{fill:#a8a8a8;}.cls-4{fill:#7f7f7f;}.cls-5{fill:#545454;}.cls-6{fill:#ddd;}</style><clipPath id="clip-path"><polygon class="cls-1" points="33 0 0 0 0 66 33 66 33 99 99 99 99 66 99 0 33 0"/></clipPath></defs><title>Colour codes</title><g class="cls-2"><polygon class="cls-3" points="20.01 -16.35 -19.16 49.65 -13.74 48.88 25.43 -17.13 20.01 -16.35"/><polygon class="cls-3" points="24.35 7.35 -14.82 73.36 -9.38 72.58 29.79 6.58 24.35 7.35"/><polygon class="cls-3" points="20.48 66.97 59.19 0.7 61.15 5.82 22.44 72.11 20.48 66.97"/><polygon class="cls-3" points="-3.78 46.15 34.93 -20.13 36.88 -15.01 -1.82 51.28 -3.78 46.15"/><polygon class="cls-3" points="13.87 32.67 31.03 3.5 36.5 2.93 16.01 37.73 13.87 32.67"/><polygon class="cls-3" points="-24.57 102.76 14.13 36.5 16.09 41.62 -22.61 107.9 -24.57 102.76"/><polygon class="cls-3" points="-1.72 95.07 36.98 28.8 38.93 33.92 0.22 100.2 -1.72 95.07"/><polygon class="cls-3" points="-6.93 89.3 10.24 60.13 15.71 59.56 -4.77 94.36 -6.93 89.3"/><polygon class="cls-3" points="-23.43 68.81 15.28 2.53 17.23 7.66 -21.46 73.94 -23.43 68.81"/><polygon class="cls-3" points="96.69 -37.05 55.07 33.65 56.58 34.54 98.19 -36.15 96.69 -37.05"/><polygon class="cls-3" points="103.74 -44.07 44.36 55.99 52.6 54.82 111.99 -45.25 103.74 -44.07"/><polygon class="cls-3" points="110.33 -8.13 50.96 91.93 59.19 90.75 118.58 -9.32 110.33 -8.13"/><polygon class="cls-3" points="98.86 -10.78 72.83 33.45 76.1 41.12 107.16 -11.64 98.86 -10.78"/><polygon class="cls-3" points="123.46 -15.54 97.43 28.69 100.7 36.36 131.76 -16.4 123.46 -15.54"/><polygon class="cls-3" points="62.24 105.25 97.58 45.21 98.87 45.95 63.52 106.02 62.24 105.25"/><polygon class="cls-3" points="58.39 114.43 108.23 29.08 110.75 35.69 60.9 121.03 58.39 114.43"/><polygon class="cls-3" points="87.79 104.51 137.64 19.17 140.15 25.77 90.32 111.12 87.79 104.51"/><polygon class="cls-3" points="81.88 88.71 116.88 29.27 117.38 29.57 82.39 89.01 81.88 88.71"/><polygon class="cls-3" points="81.09 97.08 103.22 59.51 110.26 58.78 83.88 103.6 81.09 97.08"/><polygon class="cls-3" points="89.28 114.2 111.39 76.64 118.44 75.92 92.06 120.72 89.28 114.2"/><polygon class="cls-4" points="-21.23 90.85 20.39 20.15 21.91 21.04 -19.7 91.72 -21.23 90.85"/><polygon class="cls-4" points="-21.35 102.64 37.32 2.17 40.28 9.94 -18.39 110.41 -21.35 102.64"/><polygon class="cls-4" points="13.26 90.96 71.94 -9.51 74.9 -1.73 16.22 98.74 13.26 90.96"/><rect class="cls-4" x="24.22" y="22.04" width="81.2" height="0.7" transform="translate(12.65 66.89) rotate(-59.52)"/><polygon class="cls-4" points="5.37 82.22 31.41 37.99 39.7 37.14 8.65 89.88 5.37 82.22"/><polygon class="cls-4" points="10.25 114.98 36.28 70.75 44.58 69.89 13.51 122.65 10.25 114.98"/><polygon class="cls-4" points="82.84 6.05 23.48 106.11 31.7 104.94 91.09 4.87 82.84 6.05"/><polygon class="cls-4" points="89.44 41.99 30.07 142.05 38.29 140.87 97.69 40.81 89.44 41.99"/><polygon class="cls-4" points="74.8 85.18 33.61 155.15 34.21 155.52 75.39 85.54 74.8 85.18"/><polygon class="cls-4" points="77.97 39.34 51.93 83.57 55.2 91.24 86.26 38.49 77.97 39.34"/><polygon class="cls-4" points="100.26 37.98 74.23 82.2 77.51 89.88 108.56 37.12 100.26 37.98"/><polygon class="cls-4" points="78.46 2.18 43.12 62.23 44.39 62.99 79.75 2.94 78.46 2.18"/><polygon class="cls-4" points="87.17 -2.78 36.73 82.21 43.72 81.21 94.17 -3.79 87.17 -2.78"/><polygon class="cls-4" points="92.76 27.74 42.34 112.73 49.32 111.73 99.77 26.74 92.76 27.74"/><polygon class="cls-4" points="83.02 25.49 60.9 63.06 63.68 69.57 90.06 24.76 83.02 25.49"/><polygon class="cls-4" points="109.36 15.6 87.24 53.17 90.02 59.69 116.4 14.88 109.36 15.6"/><polygon class="cls-5" points="19.99 44.7 -21.64 115.39 -20.12 116.28 21.49 45.6 19.99 44.7"/><polygon class="cls-5" points="6.32 63.64 -21.71 111.24 -20.81 111.76 7.22 64.17 6.32 63.64"/><polygon class="cls-5" points="43.98 25.15 -15.4 125.21 -7.16 124.03 52.22 23.97 43.98 25.15"/><polygon class="cls-5" points="30.93 64.02 -10.26 134 -9.67 134.36 31.53 64.38 30.93 64.02"/><polygon class="cls-5" points="52.91 62.85 11.71 132.83 12.32 133.18 53.51 63.2 52.91 62.85"/><polygon class="cls-5" points="39.1 58.44 13.06 102.66 16.34 110.33 47.39 57.58 39.1 58.44"/><polygon class="cls-5" points="70.11 46.79 44.07 91.03 47.35 98.69 78.4 45.94 70.11 46.79"/><polygon class="cls-5" points="42.73 -47.66 1.11 23.03 2.61 23.93 44.24 -46.77 42.73 -47.66"/><polygon class="cls-5" points="15.3 -15.01 -12.72 32.59 -11.82 33.12 16.22 -14.49 15.3 -15.01"/><polygon class="cls-5" points="52.97 -53.51 -6.39 46.55 1.83 45.38 61.21 -54.68 52.97 -53.51"/><polygon class="cls-5" points="59.56 -17.57 0.2 82.49 8.42 81.31 67.81 -18.75 59.56 -17.57"/><polygon class="cls-5" points="48.09 -20.22 22.06 24 25.33 31.68 56.39 -21.07 48.09 -20.22"/><polygon class="cls-5" points="79.1 -31.86 53.07 12.37 56.34 20.04 87.4 -32.72 79.1 -31.86"/><rect class="cls-5" x="44.66" y="21.42" width="69.68" height="1.48" transform="translate(20.07 79.42) rotate(-59.51)"/><polygon class="cls-5" points="69.61 33.84 93.41 -6.59 94.17 -6.13 70.37 34.3 69.61 33.84"/><polygon class="cls-5" points="56.55 77.7 106.39 -7.65 108.91 -1.05 59.06 84.3 56.55 77.7"/><rect class="cls-5" x="63.3" y="22.11" width="68.98" height="0.58" transform="translate(28.87 95.3) rotate(-59.51)"/><polygon class="cls-5" points="88.23 68.78 123.22 9.34 123.73 9.64 88.74 69.08 88.23 68.78"/><polygon class="cls-5" points="79.25 60.34 101.38 22.78 108.42 22.04 82.05 66.86 79.25 60.34"/><polygon class="cls-5" points="83.39 88.17 105.52 50.61 112.55 49.88 86.18 94.69 83.39 88.17"/><polygon class="cls-6" points="1.96 106.78 37.3 46.73 38.59 47.47 3.23 107.53 1.96 106.78"/><polygon class="cls-6" points="14.89 72.94 38.69 32.51 39.46 32.97 15.66 73.41 14.89 72.94"/><polygon class="cls-6" points="1.84 116.79 51.68 31.45 54.2 38.05 4.37 123.39 1.84 116.79"/><polygon class="cls-6" points="31.24 106.88 81.09 21.53 83.61 28.13 33.76 113.48 31.24 106.88"/><polygon class="cls-6" points="24.55 99.44 46.66 61.88 53.71 61.14 27.33 105.96 24.55 99.44"/><polygon class="cls-6" points="28.68 127.27 50.81 89.7 57.84 88.98 31.46 133.79 28.68 127.27"/></g></svg>