<?xml version="1.0" encoding="utf-8"?>
<!-- Generator: Adobe Illustrator 22.1.0, SVG Export Plug-In . SVG Version: 6.00 Build 0)  -->
<svg version="1.1" id="Layer_1" xmlns="http://www.w3.org/2000/svg" xmlns:xlink="http://www.w3.org/1999/xlink" x="0px" y="0px"
	 viewBox="0 0 64 59.5" style="enable-background:new 0 0 64 59.5;" xml:space="preserve">
<style type="text/css">
	.st0{fill:#D1D3D4;}
	.st1{display:none;fill:#D1D3D4;}
</style>
<path class="st0" d="M7.7,19.1C10.9,14,16.6,9.3,24.8,5l1.5,2.9c-3.2,2.2-6.3,4.7-9.1,7.4c-3.5,3.6-5.2,7-5.2,10.2
	c-0.1,0.9,0.3,1.7,1,2.2c0.5,0.3,1.1,0.5,1.7,0.6c1.1-0.2,2.1-0.3,3.2-0.3c2.6-0.1,5.1,1,6.8,3c1.8,2,2.7,4.6,2.6,7.2
	c0.1,2.9-0.9,5.8-2.9,8c-2.1,2.2-5,3.4-8,3.2c-3.7,0.1-7.3-1.5-9.7-4.3C4.2,42.2,3,38.4,3,33.6C3,29.1,4.6,24.2,7.7,19.1z
	 M39.7,18.7C43,13.6,48.6,9,56.5,5l1.5,2.9c-3.2,2.1-6.1,4.5-8.9,7.2c-3.7,3.7-5.5,7-5.5,10.2c0,0.8,0.2,1.6,0.7,2.2
	c0.5,0.6,1.2,0.9,1.9,0.8c1.1-0.2,2.1-0.3,3.2-0.3c2.6-0.1,5.1,1,6.7,3c1.8,2,2.7,4.6,2.7,7.3c0.1,3-1,5.9-3,8.1
	c-2.1,2.1-5.1,3.2-8.1,3.1c-3.7,0.1-7.2-1.5-9.5-4.3c-2.5-2.9-3.7-6.7-3.7-11.5S36.4,23.9,39.7,18.7z"/>
<path class="st1" d="M435.1,116.1c3.2-2.1,6.2-4.5,9-7.2c3.6-3.6,5.4-7,5.4-10.2c0-0.8-0.2-1.5-0.6-2.2c-0.5-0.6-1.2-0.9-2-0.8
	c-0.9,0.2-1.9,0.3-2.8,0.3c-2.6,0.1-5.2-1-7-2.8c-1.9-2.1-2.9-4.8-2.8-7.6c-0.1-2.8,0.9-5.5,2.7-7.7c1.9-2.2,4.6-3.3,8.2-3.3
	c3.5,0,6.8,1.4,9.3,3.9c2.7,2.6,4,6.4,4,11.5c0,6.9-2.7,13.1-8.1,18.8c-4.1,4.1-8.7,7.5-13.8,10.2L435.1,116.1z M466.5,116.1
	c3.3-2.2,6.4-4.7,9.2-7.5c3.4-3.5,5.2-6.8,5.2-9.9c0.1-0.8-0.2-1.7-0.8-2.3c-0.5-0.4-1.1-0.7-1.8-0.7c-1,0.2-1.9,0.3-2.9,0.3
	c-2.6,0.1-5.2-0.9-7-2.8c-1.9-2-2.9-4.7-2.8-7.4c-0.2-3,0.9-6,3-8.1c2.1-2,5-3.1,7.9-3c3.6-0.1,7.1,1.4,9.5,4.1
	c2.5,2.8,3.8,6.6,3.8,11.4c0,6.9-2.8,13.2-8.4,19c-4,3.9-8.5,7.2-13.4,9.8L466.5,116.1z"/>
</svg>
