<?xml version="1.0" encoding="utf-8"?>
<!-- Generator: Adobe Illustrator 22.1.0, SVG Export Plug-In . SVG Version: 6.00 Build 0)  -->
<svg version="1.1" id="Layer_1" xmlns="http://www.w3.org/2000/svg" xmlns:xlink="http://www.w3.org/1999/xlink" x="0px" y="0px"
	 viewBox="0 0 64 59.5" style="enable-background:new 0 0 64 59.5;" xml:space="preserve">
<style type="text/css">
	.st0{fill:#D1D3D4;}
</style>
<title>quotes</title>
<path class="st0" d="M5,49.1c3.2-2.1,6.2-4.5,9-7.2c3.6-3.6,5.4-7,5.4-10.2c0-0.8-0.2-1.5-0.6-2.2c-0.5-0.6-1.2-0.9-2-0.8
	C15.9,28.8,14.9,29,14,29c-2.6,0.1-5.2-1-7-2.8c-1.9-2.1-2.9-4.8-2.8-7.6c-0.1-2.8,0.9-5.5,2.7-7.7c1.9-2.2,4.6-3.3,8.2-3.3
	c3.5,0,6.8,1.4,9.3,3.9c2.7,2.6,4,6.4,4,11.5c0,6.9-2.7,13.1-8.1,18.8c-4.1,4.1-8.7,7.5-13.8,10.2L5,49.1z M36.5,49.1
	c3.3-2.2,6.4-4.7,9.2-7.5c3.4-3.5,5.2-6.8,5.2-9.9c0.1-0.8-0.2-1.7-0.8-2.3c-0.5-0.4-1.1-0.7-1.8-0.7c-1,0.2-1.9,0.3-2.9,0.3
	c-2.6,0.1-5.2-0.9-7-2.8c-1.9-2-2.9-4.7-2.8-7.4c-0.2-3,0.9-6,3-8.1c2.1-2,5-3.1,7.9-3c3.6-0.1,7.1,1.4,9.5,4.1
	c2.5,2.8,3.8,6.6,3.8,11.4c0,6.9-2.8,13.2-8.4,19c-4,3.9-8.5,7.2-13.4,9.8L36.5,49.1z"/>
</svg>
